<svg xmlns="http://www.w3.org/2000/svg" width="40.991" height="40.085" viewBox="0 0 40.991 40.085">
  <g id="Group_76" data-name="Group 76" transform="translate(-143.062 -48.708)">
    <path id="Path_16" data-name="Path 16" d="M181.713,61.1a2.223,2.223,0,0,0-.315-.274q-8.343-4.82-16.691-9.632c-.325-.187-.41-.163-.6.163L149.821,76.082c-.188.325-.167.4.166.6q1.525.882,3.053,1.761l13.617,7.852c.344.2.425.177.621-.161q.609-1.054,1.215-2.108l13.03-22.546C181.583,61.372,181.631,61.262,181.713,61.1ZM164.435,48.708a2.733,2.733,0,0,1,1.434.413q6.347,3.666,12.7,7.327,2.023,1.167,4.048,2.333a2.635,2.635,0,0,1,1.014,3.8q-7.158,12.391-14.317,24.781a2.654,2.654,0,0,1-2.423,1.436,2.522,2.522,0,0,1-1.277-.363q-8.469-4.887-16.938-9.773a2.635,2.635,0,0,1-.922-3.738q5.527-9.568,11.059-19.136,1.644-2.845,3.289-5.692A2.608,2.608,0,0,1,164.435,48.708Z" fill="#fca120"/>
    <path id="Path_17" data-name="Path 17" d="M159.511,50.737c-.456.793-.88,1.537-1.318,2.272-.037.062-.173.09-.263.091-.579.008-1.158,0-1.737,0H145.938c-.447,0-.5.05-.5.5V75.373q0,3.348,0,6.7c0,.394.064.459.448.459,1.8,0,3.6,0,5.408.006a.992.992,0,0,1,.47.126c1.168.662,2.329,1.336,3.492,2.007.094.055.185.115.343.213-.166.007-.262.016-.358.016-3.119,0-6.239-.03-9.358.013a2.758,2.758,0,0,1-2.825-2.833c.031-6.724.013-13.449.013-20.173,0-2.8.018-5.6-.008-8.406a2.679,2.679,0,0,1,2.186-2.718,3.442,3.442,0,0,1,.556-.04q6.725,0,13.449,0Z" fill="#fca120"/>
    <path id="Path_18" data-name="Path 18" d="M170.991,67.54a4.111,4.111,0,1,1-5.574,6c.059.646.1,1.227.171,1.8.059.451.16.9.255,1.344a.485.485,0,0,1-.168.549.491.491,0,0,1-.576,0q-3.306-1.908-6.614-3.812a.457.457,0,0,1-.26-.484.5.5,0,0,1,.376-.4c.844-.319,1.682-.652,2.521-.983.094-.037.181-.091.332-.168a4.067,4.067,0,0,1-2.646-2.2,4,4,0,0,1-.054-3.41,4.107,4.107,0,0,1,5.119-2.191,4.076,4.076,0,0,1,2.995-2.435,3.976,3.976,0,0,1,2.9.512A4.115,4.115,0,0,1,170.991,67.54Z" fill="#fca120"/>
  </g>
</svg>
