<svg xmlns="http://www.w3.org/2000/svg" xmlns:xlink="http://www.w3.org/1999/xlink" width="137" height="128" viewBox="0 0 137 128">
  <defs>
    <filter id="Polygon_1" x="0" y="0" width="137" height="128" filterUnits="userSpaceOnUse">
      <feOffset dy="-14" input="SourceAlpha"/>
      <feGaussianBlur stdDeviation="9.5" result="blur"/>
      <feFlood flood-color="#5affee"/>
      <feComposite operator="in" in2="blur"/>
      <feComposite in="SourceGraphic"/>
    </filter>
  </defs>
  <g transform="matrix(1, 0, 0, 1, 0, 0)" filter="url(#Polygon_1)">
    <g id="Polygon_1-2" data-name="Polygon 1" transform="translate(28.5 42.5)" fill="#fff">
      <path d="M 73.15536499023438 68.5 L 6.844635486602783 68.5 C 6.067741394042969 68.5 5.680152893066406 67.98028564453125 5.549564838409424 67.7568359375 C 5.418988227844238 67.53339385986328 5.156435489654541 66.94060516357422 5.537764549255371 66.26373291015625 L 38.69313049316406 7.412968158721924 C 39.08148193359375 6.723650455474854 39.73643493652344 6.649238586425781 40 6.649238586425781 C 40.26356506347656 6.649238586425781 40.91851806640625 6.723650455474854 41.30686950683594 7.412968158721924 L 74.46224975585938 66.26373291015625 C 74.84357452392578 66.94058990478516 74.58100891113281 67.53339385986328 74.45043182373047 67.7568359375 C 74.31984710693359 67.98028564453125 73.93224334716797 68.5 73.15536499023438 68.5 Z" stroke="none"/>
      <path d="M 39.99999618530273 10.18653106689453 L 8.555793762207031 65.99999237060547 L 71.44419860839844 65.99999237060547 L 39.99999618530273 10.18653106689453 M 40 4.149223327636719 C 41.36002731323242 4.149223327636719 42.72005844116211 4.828102111816406 43.4849853515625 6.18585205078125 L 76.64035797119141 65.03662109375 C 78.14257049560547 67.70306396484375 76.21584320068359 70.99999237060547 73.15535736083984 70.99999237060547 L 6.844627380371094 70.99999237060547 C 3.784141540527344 70.99999237060547 1.857414245605469 67.70306396484375 3.359642028808594 65.03662109375 L 36.51499938964844 6.18585205078125 C 37.27993392944336 4.828102111816406 38.63996887207031 4.149223327636719 40 4.149223327636719 Z" stroke="none" fill="#5affee"/>
    </g>
  </g>
</svg>
