<svg id="Icon_ionic-ios-exit" data-name="Icon ionic-ios-exit" xmlns="http://www.w3.org/2000/svg" width="29.25" height="22.486" viewBox="0 0 29.25 22.486">
  <path id="Path_23" data-name="Path 23" d="M10.125,9.563v7.523H22.774l-3.319-3.368a.915.915,0,1,1,1.3-1.287l4.852,4.922a.929.929,0,0,1,.26.64.872.872,0,0,1-.07.352.977.977,0,0,1-.19.288h0l-4.852,4.922a.915.915,0,1,1-1.3-1.287L22.774,18.9H10.125v7.523a2.821,2.821,0,0,0,2.813,2.813H29.813a2.821,2.821,0,0,0,2.813-2.812V9.563A2.821,2.821,0,0,0,29.813,6.75H12.938A2.821,2.821,0,0,0,10.125,9.563Z" transform="translate(-3.375 -6.75)" fill="#00cbff"/>
  <path id="Path_24" data-name="Path 24" d="M4.289,17.086a.914.914,0,0,0,0,1.828h5.836V17.086Z" transform="translate(-3.375 -6.75)" fill="#00cbff"/>
</svg>
