<svg xmlns="http://www.w3.org/2000/svg" width="23.921" height="20.931" viewBox="0 0 23.921 20.931">
  <path id="Icon_awesome-gift" data-name="Icon awesome-gift" d="M1.5,21.686a1.493,1.493,0,0,0,1.5,1.5h7.475V15.706H1.5Zm11.96,1.5h7.475a1.493,1.493,0,0,0,1.5-1.5v-5.98h-8.97ZM22.426,8.23H20.459a4.074,4.074,0,0,0,.472-1.869A4.117,4.117,0,0,0,16.819,2.25c-1.944,0-3.2,1-4.812,3.191C10.4,3.245,9.139,2.25,7.195,2.25A4.117,4.117,0,0,0,3.084,6.361,4.016,4.016,0,0,0,3.555,8.23H1.5A1.493,1.493,0,0,0,0,9.725v3.738a.75.75,0,0,0,.748.748H23.173a.75.75,0,0,0,.748-.748V9.725A1.493,1.493,0,0,0,22.426,8.23ZM7.19,8.23a1.869,1.869,0,1,1,0-3.738c.93,0,1.617.154,4.023,3.738H7.19Zm9.629,0H12.8c2.4-3.574,3.07-3.738,4.023-3.738a1.869,1.869,0,0,1,0,3.738Z" transform="translate(0 -2.25)" fill="#00cbff"/>
</svg>
