<svg xmlns="http://www.w3.org/2000/svg" width="23.267" height="18.097" viewBox="0 0 23.267 18.097">
  <path id="Icon_awesome-shopping-basket" data-name="Icon awesome-shopping-basket" d="M23.267,9.682v.646a.969.969,0,0,1-.969.969h-.323L20.92,18.682A1.939,1.939,0,0,1,19,20.346H4.267a1.939,1.939,0,0,1-1.919-1.665L1.293,11.3H.969A.969.969,0,0,1,0,10.329V9.682a.969.969,0,0,1,.969-.969H3.69L8,2.782A1.293,1.293,0,1,1,10.094,4.3L6.886,8.713h9.494L13.173,4.3a1.293,1.293,0,0,1,2.091-1.521l4.313,5.931H22.3A.969.969,0,0,1,23.267,9.682ZM12.6,16.792V12.268a.969.969,0,1,0-1.939,0v4.524a.969.969,0,1,0,1.939,0Zm4.524,0V12.268a.969.969,0,1,0-1.939,0v4.524a.969.969,0,1,0,1.939,0Zm-9.048,0V12.268a.969.969,0,0,0-1.939,0v4.524a.969.969,0,1,0,1.939,0Z" transform="translate(0 -2.25)" fill="#0bb5f9"/>
</svg>
